<svg xmlns="http://www.w3.org/2000/svg" width="30" height="27"><g><g transform="translate(0.739 0.712)"><defs><linearGradient id="idBY23B7UvRg-21" x1=".707" x2=".293" y1="1" y2="0"><stop offset="0" stop-color="#9F49F7" stop-opacity="1"/><stop offset="1" stop-color="#9F49F7" stop-opacity="1"/></linearGradient></defs><path fill="url(#idBY23B7UvRg-21)" d="M 17.949 20.206 C 19.58 20.206 20.903 21.536 20.903 23.177 C 20.903 24.818 19.58 26.148 17.949 26.148 L 0.909 26.148 C 0.407 26.148 0 25.739 0 25.234 L 0 21.12 C 0 20.615 0.407 20.206 0.909 20.206 Z"/></g><g transform="translate(0.739 0.712)"><defs><linearGradient id="idVGfWfEiXgg1837333174" x1="0" x2="1" y1=".187" y2=".813"><stop offset="0" stop-color="#37B9FE" stop-opacity="1"/><stop offset="1" stop-color="#00A6FF" stop-opacity="1"/></linearGradient></defs><path fill="url(#idVGfWfEiXgg1837333174)" d="M 14.609 9.156 C 13.793 7.735 14.278 5.918 15.69 5.097 C 17.103 4.277 18.909 4.764 19.725 6.185 L 28.245 21.031 C 28.496 21.468 28.347 22.027 27.912 22.28 L 24.371 24.337 C 23.936 24.589 23.38 24.44 23.129 24.002 Z"/></g><g transform="translate(0.739 0.712)"><defs><linearGradient id="iddqxTqYgVig-1329651254" x1=".694" x2=".306" y1="0" y2="1"><stop offset="0" stop-color="#E65FFC" stop-opacity="1"/><stop offset="1" stop-color="#B500D3" stop-opacity="1"/></linearGradient></defs><path fill="url(#iddqxTqYgVig-1329651254)" d="M 1.282 15.303 C 0.466 16.725 0.95 18.542 2.363 19.362 C 3.776 20.183 5.582 19.696 6.398 18.275 L 14.918 3.429 C 15.169 2.991 15.02 2.432 14.585 2.18 L 11.044 0.123 C 10.609 -0.13 10.053 0.02 9.802 0.457 Z"/></g></g></svg>